# xmcd
#
# Track frame offsets: 
#        150
#        11749
#        21173
#        31661
#        51865
#        67984
#        80370
#        92927
#        112539
#        126273
#        135552
#        144923
#        164523
#        180391
#
# Disc length: 2597 seconds
#
# Revision: 0
# Processed by: cddbd v1.5.2PL0 Copyright (c) Steve Scherf et al.
# Submitted via: ExactAudioCopy v0.95b4
#
DISCID=aa0a230e
DTITLE=Willie Nelson - The Very Beast Of
DYEAR=2008
DGENRE=Country
TTITLE0=on_the_road
TTITLE1=if_youve_got_the_money_ive_got_the_time
TTITLE2=blue_eyes_crying_in_the_rain
TTITLE3=angel_flying_too_close_to_the_ground
TTITLE4=the_pilgrim_chapter_33
TTITLE5=im_movin_on_with_hank_snow
TTITLE6=big_river_with_waylon_jennings_johnny_cash_and_kris_kristoffer
TTITLE6=son
TTITLE7=georgia_on_my_mind
TTITLE8=if_you_can_touch_her_at_all_with_waylon_jennings
TTITLE9=something_to_brag_about_with_mary_kay_place
TTITLE10=live_fast_love_hard_die_young_with_faron_young
TTITLE11=last_thing_i_needed_the_first_thing_this_morning
TTITLE12=always_on_my_mind
TTITLE13=sweet_memories
EXTD=
EXTT0=On The Road Again
EXTT1=If You`ve Got The Money I`ve Got The Time
EXTT2=Blue Eyes Crying In The Rain
EXTT3=Angel Flying Too Close To The Ground
EXTT4=The Pilgrim: Chapter 33
EXTT5=I`m Movin` On with Hank Snow
EXTT6=Big River with Waylon Jennings,Johnny Cash and Kris Kristofferso
EXTT6=n
EXTT7=Georgia On My Mind
EXTT8=If You Can Tauch Her At All with Walon Jennings
EXTT9=Something To Brag About with Mary Kay Place
EXTT10=Live Fast,Love Hard,Die Young with Faron Young
EXTT11=Last Thing I Needed The First Thing This Morning\n
EXTT12=Always On My Mind\n
EXTT13=Sweet Memories
PLAYORDER=
